<svg width="20" height="22" viewBox="0 0 20 22" fill="none" xmlns="http://www.w3.org/2000/svg">
<path d="M20 13H0V9H20V13Z" fill="#C8FFCF"/>
<path d="M7.98172 0.803529C8.51807 0.288301 9.24509 -0.000731033 10.0029 1.38861e-06C10.7606 0.00073381 11.487 0.29117 12.0223 0.807405C12.5576 1.32364 12.8579 2.02341 12.8571 2.75275C12.8564 3.48209 12.5546 4.18128 12.0183 4.6965C11.4819 5.2117 10.7549 5.50073 9.99713 5.5C9.23938 5.49927 8.51297 5.20883 7.97766 4.6926C7.44238 4.17636 7.14209 3.47659 7.14285 2.74725C7.14362 2.01792 7.44537 1.31873 7.98172 0.803529Z" fill="#C8FFCF"/>
<path d="M7.98172 17.3035C8.51807 16.7883 9.24509 16.4993 10.0029 16.5C10.7606 16.5007 11.487 16.7912 12.0223 17.3074C12.5576 17.8236 12.8579 18.5234 12.8571 19.2527C12.8564 19.9821 12.5546 20.6813 12.0183 21.1965C11.4819 21.7117 10.7549 22.0007 9.99713 22C9.23938 21.9993 8.51297 21.7088 7.97766 21.1926C7.44238 20.6764 7.14209 19.9766 7.14285 19.2473C7.14362 18.5179 7.44537 17.8187 7.98172 17.3035Z" fill="#C8FFCF"/>
</svg>
