<svg width="25" height="21" viewBox="0 0 25 21" fill="none" xmlns="http://www.w3.org/2000/svg">
<path d="M3.05601 20L18.812 0.629998H22.088L6.33201 20H3.05601ZM6.02001 10.458C5.06667 10.458 4.20867 10.2327 3.44601 9.782C2.68334 9.314 2.06801 8.69867 1.60001 7.936C1.14934 7.17333 0.924008 6.324 0.924008 5.388C0.924008 4.452 1.14934 3.60267 1.60001 2.84C2.06801 2.06 2.68334 1.44467 3.44601 0.994C4.20867 0.543333 5.06667 0.317999 6.02001 0.317999C6.97334 0.317999 7.83134 0.543333 8.59401 0.994C9.35668 1.44467 9.96334 2.06 10.414 2.84C10.8647 3.60267 11.09 4.452 11.09 5.388C11.09 6.324 10.8647 7.17333 10.414 7.936C9.96334 8.69867 9.35668 9.314 8.59401 9.782C7.83134 10.2327 6.97334 10.458 6.02001 10.458ZM6.02001 8.092C6.55734 8.092 7.01667 7.962 7.39801 7.702C7.79668 7.442 8.10001 7.104 8.30801 6.688C8.51601 6.272 8.62001 5.83867 8.62001 5.388C8.62001 4.92 8.51601 4.48667 8.30801 4.088C8.10001 3.672 7.79668 3.334 7.39801 3.074C7.01667 2.814 6.55734 2.684 6.02001 2.684C5.50001 2.684 5.04067 2.814 4.64201 3.074C4.24334 3.334 3.93134 3.672 3.70601 4.088C3.49801 4.48667 3.39401 4.92 3.39401 5.388C3.39401 5.83867 3.49801 6.272 3.70601 6.688C3.93134 7.104 4.24334 7.442 4.64201 7.702C5.04067 7.962 5.50001 8.092 6.02001 8.092ZM18.994 20.312C18.0407 20.312 17.174 20.0867 16.394 19.636C15.6313 19.168 15.0247 18.5527 14.574 17.79C14.1233 17.0273 13.898 16.178 13.898 15.242C13.898 14.306 14.1233 13.4567 14.574 12.694C15.0247 11.914 15.6313 11.2987 16.394 10.848C17.174 10.3973 18.0407 10.172 18.994 10.172C19.9473 10.172 20.8053 10.3973 21.568 10.848C22.3307 11.2987 22.9373 11.914 23.388 12.694C23.8387 13.4567 24.064 14.306 24.064 15.242C24.064 16.178 23.8387 17.0273 23.388 17.79C22.9373 18.5527 22.3307 19.168 21.568 19.636C20.8053 20.0867 19.9473 20.312 18.994 20.312ZM18.994 17.946C19.5313 17.946 19.9907 17.816 20.372 17.556C20.7533 17.296 21.048 16.958 21.256 16.542C21.4813 16.126 21.594 15.6927 21.594 15.242C21.594 14.774 21.4813 14.3407 21.256 13.942C21.048 13.526 20.7533 13.188 20.372 12.928C19.9907 12.668 19.5313 12.538 18.994 12.538C18.474 12.538 18.0147 12.668 17.616 12.928C17.2173 13.188 16.9053 13.526 16.68 13.942C16.472 14.3407 16.368 14.774 16.368 15.242C16.368 15.6927 16.472 16.126 16.68 16.542C16.9053 16.958 17.2173 17.296 17.616 17.556C18.0147 17.816 18.474 17.946 18.994 17.946Z" fill="#086716"/>
</svg>
